<?xml version="1.0" encoding="UTF-8"?>
<svg id="Laag_1" xmlns="http://www.w3.org/2000/svg" version="1.1" viewBox="0 0 586.3 220.6">
  <defs>
    <style>
      .st0 { fill: none; }
      .st1 { fill: #181730; }
      .st2, .st3 { fill: #191933; }
      .st4, .st3 { fill-rule: evenodd; }
      .st4, .st5 { fill: #3ab4a0; }
    </style>
  </defs>
  <g>
    <path class="st5" d="M51.6,158.3c0,12.3-8.7,22.3-25.2,22.3S0,171.1,0,155.9s11.5-24.7,26.4-24.7,23.4,10.1,23.6,17.2c0,.5-.3,1-1.3,1h-8.2c-.5,0-1-.2-1.2-.8-.9-3.8-4.6-8.4-12.9-8.4s-15.6,6.5-15.6,15.6,7.3,15.6,15.6,15.6,13.8-4.3,14.1-8.9h-17.6c-.5,0-1.1-.6-1.1-1.1v-6.1c0-.5.6-1.1,1.1-1.1h28.7v4Z"/>
    <path class="st5" d="M68.4,133c0-.5.5-1,1-1h22.2c11.6,0,19.9,6.3,19.9,16.7s-4.4,12.1-10.8,14.4v.2s1.4,1.5,2.6,3.2l8.1,11.8c.4.6.5.9.5,1,0,.3-.2.6-.6.6h-10.6c-.4,0-1-.3-1.3-.8l-9.7-14.2h-10.3v14c0,.5-.5,1-1,1h-8.9c-.5,0-1-.5-1-1v-45.9ZM79.3,141.1v15.2h11.6c6,0,9.8-2.8,9.8-7.5s-3.8-7.7-9.8-7.7h-11.6Z"/>
    <path class="st5" d="M139.3,159.9v10.8h28.1c.5,0,1.1.6,1.1,1.1v6.9c0,.5-.6,1.1-1.1,1.1h-38c-.5,0-1-.5-1-1v-45.9c0-.5.5-1,1-1h37.5c.5,0,1.1.6,1.1,1.1v6.9c0,.5-.6,1.1-1.1,1.1h-27.6v9.7h25.2c.5,0,1.1.6,1.1,1.1v6.9c0,.5-.6,1.1-1.1,1.1h-25.2Z"/>
    <path class="st5" d="M195.7,159.9v10.8h28.1c.5,0,1.1.6,1.1,1.1v6.9c0,.5-.6,1.1-1.1,1.1h-38c-.5,0-1-.5-1-1v-45.9c0-.5.5-1,1-1h37.5c.5,0,1.1.6,1.1,1.1v6.9c0,.5-.6,1.1-1.1,1.1h-27.6v9.7h25.2c.5,0,1.1.6,1.1,1.1v6.9c0,.5-.6,1.1-1.1,1.1h-25.2Z"/>
    <path class="st5" d="M282.3,179.8l-24.4-24.9c-2.6-2.6-5.4-6.1-5.4-6.1h-.2v30.1c0,.5-.5,1-1,1h-8.9c-.5,0-1-.5-1-1v-45.9c0-.5.5-1,1-1h7.3l24.2,24.6c2.6,2.6,5.6,6.5,5.6,6.5h.3v-30.1c0-.5.5-1,1-1h8.9c.5,0,1,.5,1,1v45.9c0,.5-.5,1-1,1h-7.3Z"/>
    <path class="st2" d="M316.7,163.7c1,0,1.4.4,1.6,1.2.8,4.1,4.2,6.6,11.8,6.6s11.1-2.9,11.1-6.3-1.6-4.2-6.4-4.6l-12.4-1c-9.7-.8-14.9-5.3-14.9-12.4s7.3-16,21.4-16,21,6.8,21,14.4-.6,1.4-1.5,1.4h-7.9c-.8,0-1.3-.2-1.4-1.2-.5-2.8-3.2-5.5-10.2-5.5s-10.4,2.7-10.4,6.2,1.4,3.7,5.8,4.1l12.4,1c11.2,1,15.6,6.5,15.6,13.2s-6.5,15.9-21.9,15.9-22.7-6.9-22.7-14.8v-.6c0-.8.6-1.4,1.5-1.4h7.7Z"/>
    <path class="st2" d="M369.8,179.8c-.5,0-1-.5-1-1v-45.9c0-.5.5-1,1-1h20.4c11.6,0,19.9,6.9,19.9,17.9s-8.6,17.6-19.9,17.6h-10.5v11.3c0,.5-.5,1-1,1h-8.9ZM379.7,141.1v17.9h9.7c6.3,0,9.9-3.7,9.9-9s-4-8.9-9.9-8.9h-9.7Z"/>
    <path class="st2" d="M436.6,159.9v10.8h28.1c.5,0,1.1.6,1.1,1.1v6.9c0,.5-.6,1.1-1.1,1.1h-38c-.5,0-1-.5-1-1v-45.9c0-.5.5-1,1-1h37.5c.5,0,1.1.6,1.1,1.1v6.9c0,.5-.6,1.1-1.1,1.1h-27.6v9.7h25.2c.5,0,1.1.6,1.1,1.1v6.9c0,.5-.6,1.1-1.1,1.1h-25.2Z"/>
    <path class="st2" d="M493.1,159.9v10.8h28.1c.5,0,1.1.6,1.1,1.1v6.9c0,.5-.6,1.1-1.1,1.1h-38c-.5,0-1-.5-1-1v-45.9c0-.5.5-1,1-1h37.5c.5,0,1.1.6,1.1,1.1v6.9c0,.5-.6,1.1-1.1,1.1h-27.6v9.7h25.2c.5,0,1.1.6,1.1,1.1v6.9c0,.5-.6,1.1-1.1,1.1h-25.2Z"/>
    <path class="st2" d="M539.7,179.8c-.5,0-1-.5-1-1v-45.9c0-.5.5-1,1-1h20.2c15.2,0,26.5,9.3,26.5,23.9s-9.6,23.9-26.3,23.9h-20.3ZM549.6,141.1v29.7h10.4c10.1,0,15.5-5.7,15.5-14.8s-6.5-14.8-15.6-14.8h-10.3Z"/>
  </g>
  <g>
    <path class="st1" d="M84.2,220.3h-2.4l-2.1-4.9h-6.7l-2.2,4.9h-2.4l6.8-14.9h2.4l6.7,14.9ZM76.3,208l-2.4,5.2h4.7l-2.4-5.2Z"/>
    <path class="st1" d="M100.8,205.3c.6,0,1.1,0,1.6.2.5.2,1,.4,1.4.8.4.3.7.8,1,1.3.2.5.4,1.1.4,1.8s-.1,1.5-.4,2c-.2.6-.6,1-1,1.4-.4.4-.9.6-1.4.8-.5.2-1.1.2-1.6.2h-6.5v6.4h-2.2v-14.9h8.6ZM94.3,207.5v4.2h6.5c.5,0,.9,0,1.2-.2.3-.1.5-.3.7-.5.1-.2.2-.5.3-.7,0-.3,0-.5,0-.7,0-.6-.2-1-.5-1.4-.4-.4-.9-.6-1.6-.6h-6.5Z"/>
    <path class="st1" d="M117.8,220c-1-.4-1.8-.9-2.6-1.6-.7-.7-1.3-1.5-1.8-2.4-.4-1-.6-2-.6-3.2s.2-2.2.6-3.2c.4-1,1-1.8,1.8-2.5.7-.7,1.6-1.2,2.6-1.6s2-.6,3.1-.6,2.1.2,3.1.6c1,.4,1.8.9,2.6,1.6.7.7,1.3,1.5,1.8,2.5.4,1,.6,2,.6,3.2s-.2,2.2-.6,3.2c-.4,1-1,1.8-1.8,2.5-.7.7-1.6,1.2-2.6,1.6-1,.4-2,.6-3.1.6s-2.1-.2-3.1-.6ZM123.2,218c.7-.3,1.3-.7,1.9-1.2s.9-1.1,1.2-1.8c.3-.7.4-1.4.4-2.2s-.1-1.5-.4-2.2c-.3-.7-.7-1.3-1.2-1.8s-1.1-.9-1.9-1.2-1.5-.4-2.4-.4-1.6.2-2.4.4-1.3.7-1.9,1.2c-.5.5-.9,1.1-1.2,1.8-.3.7-.4,1.4-.4,2.2s.1,1.5.4,2.2c.3.7.7,1.3,1.2,1.8.5.5,1.1.9,1.9,1.2s1.5.4,2.4.4,1.6-.2,2.4-.4Z"/>
    <path class="st1" d="M149.2,205.3v2.2h-5.2v12.8h-2.2v-12.8h-5.2v-2.2h12.6Z"/>
    <path class="st1" d="M158,205.3h2.2v6h8.8v-6h2.2v14.9h-2.2v-6.8h-8.8v6.8h-2.2v-14.9Z"/>
    <path class="st1" d="M193.4,205.3v2.2h-10.1v3.9h5.1v2.1h-5.1v4.6h10.5v2.2h-12.6v-14.9h12.2Z"/>
    <path class="st1" d="M214.9,205.3v2.2h-10.1v3.9h5.1v2.1h-5.1v4.6h10.5v2.2h-12.6v-14.9h12.2Z"/>
    <path class="st1" d="M226.6,205.3v7.8l7.3-7.8h3l-4.9,5.2,5.6,9.7h-2.5l-4.6-8.1-3.9,4.1v4h-2.2v-14.9h2.2Z"/>
    <path class="st1" d="M521.9,205.3v2.2h-10.1v3.9h5.1v2.1h-5.1v4.6h10.5v2.2h-12.6v-14.9h12.2Z"/>
  </g>
  <g>
    <polygon class="st0" points="365.1 26.6 352.7 26.6 352.7 35.2 344.1 35.2 344.1 47.6 352.7 47.6 352.7 56.2 365.1 56.2 365.1 47.6 373.7 47.6 373.7 35.2 365.1 35.2 365.1 26.6"/>
    <path class="st3" d="M311,28c4.8-2,8.4-6.6,8.9-12.1.2-2.1-.1-4.2-.8-6.1l8.3-2.6-1.3-3.2-8.6,2.6c-2.4-3.6-6.2-6.1-10.8-6.5-8-.7-15.1,5.2-15.8,13.2-.6,6.3,3,12.1,8.5,14.6h0c-2.1-.5-4.3-1-7.1-.9-9.4,27.8-30.6,36.7-30.6,36.7l12.9,3.6c-1,.6-2.1,1.2-3.1,1.8-29.1,15.7-53.3,13.3-53.3,13.3,0,0-12.8,14.3-14.8,16.9s5.3,1.9,9.3-3c0,0,6.2-8.1,14-7.9,39.2.9,66-16.3,66-16.3,23.1,4.5,51.4,14.4,63.1,42.6,0,0,22.7-.2,24.6-.2s0-3.6-7.5-4.1c0,0-11.1-1.2-12-3.6-17.5-35.2-59.2-48.8-59.2-48.8,3.6-8.5,5.8-14.4,7-18.4,8.9,3.3,20,4.2,25.6,4.4v-6.5c-11.4-2.6-18.9-6.4-23.5-9.5Z"/>
    <path class="st4" d="M376.9,17h-36c-3.5,0-6.5,2.9-6.5,6.4v36c0,3.5,2.9,6.5,6.5,6.5h36c3.5,0,6.5-2.9,6.5-6.5V23.4c0-3.5-2.9-6.4-6.5-6.4ZM373.7,47.6h-8.6v8.6h-12.4v-8.6h-8.6v-12.4h8.6v-8.6h12.4v8.6h8.6v12.4Z"/>
  </g>
</svg>
